<?xml version="1.0" standalone="no"?>
<!DOCTYPE svg PUBLIC "-//W3C//DTD SVG 20010904//EN"
 "http://www.w3.org/TR/2001/REC-SVG-20010904/DTD/svg10.dtd">
<svg version="1.0" xmlns="http://www.w3.org/2000/svg"
 width="489.000000pt" height="154.000000pt" viewBox="0 0 489.000000 154.000000"
 preserveAspectRatio="xMidYMid meet">

<g transform="translate(0.000000,154.000000) scale(0.100000,-0.100000)"
fill="#000000" stroke="none">
<path d="M2168 1052 c-48 -114 -90 -215 -94 -224 -5 -15 -1 -18 24 -18 27 0
32 6 52 55 l23 56 80 -3 81 -3 21 -52 c19 -51 21 -53 57 -53 35 0 37 2 29 23
-21 52 -179 418 -182 422 -2 2 -43 -90 -91 -203z m136 -59 c7 -22 5 -23 -48
-23 -31 0 -56 4 -56 9 0 5 7 26 16 47 9 22 21 50 26 64 10 24 11 24 33 -25 12
-27 25 -60 29 -72z"/>
<path d="M686 1236 c-57 -22 -114 -81 -133 -142 -47 -150 68 -294 227 -282
219 16 274 313 77 415 -42 21 -125 26 -171 9z m140 -67 c56 -27 88 -77 88
-139 0 -120 -121 -197 -221 -141 -51 29 -75 64 -81 117 -6 56 2 85 35 125 50
59 110 72 179 38z"/>
<path d="M3186 1236 c-57 -22 -114 -81 -133 -142 -47 -150 68 -294 227 -282
219 16 274 313 77 415 -42 21 -125 26 -171 9z m140 -67 c56 -27 88 -77 88
-139 0 -120 -121 -197 -221 -141 -51 29 -75 64 -81 117 -6 56 2 85 35 125 50
59 110 72 179 38z"/>
<path d="M4546 1236 c-57 -22 -114 -81 -133 -142 -47 -150 68 -294 227 -282
219 16 274 313 77 415 -42 21 -125 26 -171 9z m140 -67 c56 -27 88 -77 88
-139 0 -120 -121 -197 -221 -141 -51 29 -75 64 -81 117 -6 56 2 85 35 125 50
59 110 72 179 38z"/>
<path d="M110 1025 l0 -215 30 0 29 0 3 78 3 77 65 5 c36 3 75 11 87 18 32 18
53 64 53 117 0 100 -48 135 -184 135 l-86 0 0 -215z m176 147 c16 -10 34 -48
34 -70 0 -11 -9 -31 -21 -46 -18 -22 -28 -26 -75 -26 l-54 0 0 75 0 75 53 0
c28 0 57 -4 63 -8z"/>
<path d="M1170 1025 l0 -215 35 0 35 0 0 80 0 80 34 0 c31 0 38 -6 86 -80 48
-74 55 -80 86 -80 19 0 34 2 34 5 0 3 -22 41 -50 85 -48 76 -49 80 -30 93 45
32 65 123 37 177 -7 13 -28 35 -46 47 -29 20 -47 23 -127 23 l-94 0 0 -215z
m190 135 c11 -11 21 -28 21 -37 5 -67 -22 -93 -92 -93 l-49 0 0 75 0 75 50 0
c37 0 55 -5 70 -20z"/>
<path d="M1640 1210 c0 -30 1 -30 55 -30 l55 0 0 -185 0 -185 30 0 30 0 0 185
0 185 55 0 c54 0 55 0 55 30 l0 30 -140 0 -140 0 0 -30z"/>
<path d="M2620 1025 l0 -215 30 0 30 0 0 90 0 90 85 0 85 0 0 30 0 29 -82 3
-83 3 -3 63 -3 62 101 0 100 0 0 30 0 30 -130 0 -130 0 0 -215z"/>
<path d="M3680 1025 l0 -215 140 0 140 0 0 30 0 29 -107 3 -108 3 -3 183 -2
182 -30 0 -30 0 0 -215z"/>
<path d="M4150 1025 l0 -215 30 0 30 0 0 215 0 215 -30 0 -30 0 0 -215z"/>
<path d="M1945 771 c-50 -23 -116 -90 -160 -161 -43 -72 -78 -176 -70 -209 12
-50 30 -59 130 -66 92 -7 155 -30 155 -55 0 -6 -33 -43 -74 -83 -82 -81 -104
-129 -70 -154 58 -43 192 95 182 187 -3 30 5 39 87 110 l90 78 0 -42 c0 -35 3
-41 23 -44 18 -3 26 4 38 34 10 23 13 49 9 68 -3 17 -7 39 -8 49 -2 24 -20 21
-37 -7 -16 -26 -198 -186 -211 -186 -4 0 -11 5 -15 11 -13 22 -90 49 -140 49
-127 0 -153 23 -129 114 19 71 54 134 118 209 55 64 91 87 136 87 51 0 65 -33
58 -143 -3 -51 -9 -103 -13 -116 -5 -17 -4 -23 6 -19 17 5 39 97 40 166 0 64
-22 115 -56 131 -33 15 -42 14 -89 -8z m322 -358 c-6 -35 -22 -62 -31 -52 -3
3 0 24 6 47 13 52 33 57 25 5z m-247 -195 c0 -61 -90 -168 -142 -168 -42 0
-12 65 65 138 61 57 77 63 77 30z"/>
<path d="M2472 722 c-8 -24 -20 -31 -90 -51 -82 -24 -122 -44 -110 -56 3 -4
17 0 30 8 23 16 121 47 145 47 10 0 11 -24 7 -112 l-6 -113 -45 -42 c-49 -47
-63 -52 -63 -25 0 18 31 133 45 165 5 12 3 17 -8 17 -17 0 -40 -61 -61 -161
-12 -58 -15 -64 -44 -71 -18 -5 -32 -15 -32 -23 0 -18 1 -18 33 -6 24 9 25 8
32 -47 15 -120 51 -154 88 -82 25 49 17 108 -19 139 l-28 23 35 29 c70 60 69
60 69 -35 0 -47 4 -87 9 -90 4 -3 11 88 14 202 3 114 8 215 12 224 9 22 24 27
106 34 41 4 66 11 62 17 -5 9 -88 4 -139 -9 -19 -5 -21 -2 -17 20 7 35 -13 33
-25 -2z m-105 -434 c25 -24 29 -58 12 -107 -20 -58 -37 -34 -46 66 -3 35 -2
63 2 63 5 0 19 -10 32 -22z"/>
<path d="M2813 507 c-13 -5 -32 -29 -44 -53 -34 -71 -3 -117 35 -53 l19 32 14
-27 c14 -28 41 -33 74 -16 16 9 19 7 19 -15 0 -14 5 -25 10 -25 6 0 10 7 10
15 0 8 5 26 12 40 14 30 65 36 75 8 16 -44 69 -44 118 -2 43 38 39 52 -5 16
-43 -37 -71 -43 -87 -21 -12 16 -11 21 4 32 57 40 71 72 33 72 -20 0 -60 -32
-60 -49 0 -5 -18 -11 -40 -13 -36 -3 -40 -1 -40 19 0 36 -19 36 -25 -1 -8 -40
-36 -69 -61 -64 -10 2 -22 19 -29 43 l-12 40 -23 -38 c-23 -39 -37 -44 -26
-10 10 31 45 63 61 57 8 -4 15 -2 15 4 0 16 -23 20 -47 9z m277 -32 c-7 -9
-15 -13 -17 -11 -7 7 7 26 19 26 6 0 6 -6 -2 -15z"/>
<path d="M2548 483 c-21 -23 -48 -96 -48 -129 0 -39 21 -40 54 -1 34 41 46 46
46 19 0 -30 30 -63 53 -60 33 5 67 64 66 112 l-1 41 -7 -35 c-10 -47 -36 -96
-56 -104 -12 -4 -20 4 -31 29 -7 19 -14 39 -14 44 0 26 -25 19 -56 -16 l-34
-38 6 30 c4 17 15 47 26 68 22 45 20 67 -4 40z"/>
<path d="M1158 433 c61 -2 163 -2 225 0 61 1 11 3 -113 3 -124 0 -174 -2 -112
-3z"/>
<path d="M3498 423 c61 -2 163 -2 225 0 61 1 11 3 -113 3 -124 0 -174 -2 -112
-3z"/>
</g>
</svg>
