<?xml version="1.0" standalone="no"?>
<!DOCTYPE svg PUBLIC "-//W3C//DTD SVG 20010904//EN"
 "http://www.w3.org/TR/2001/REC-SVG-20010904/DTD/svg10.dtd">
<svg version="1.0" xmlns="http://www.w3.org/2000/svg"
 width="412.000000pt" height="348.000000pt" viewBox="0 0 412.000000 348.000000"
 preserveAspectRatio="xMidYMid meet">

<g transform="translate(0.000000,348.000000) scale(0.100000,-0.100000)"
fill="#000000" stroke="none">
<path d="M797 3420 c-79 -10 -196 -69 -243 -123 -55 -63 -101 -169 -119 -272
-10 -60 -19 -208 -25 -440 -12 -435 -21 -486 -107 -592 -39 -49 -132 -97 -205
-107 l-48 -7 0 -138 0 -139 48 -6 c26 -4 75 -21 110 -37 154 -75 202 -223 202
-629 0 -209 17 -462 36 -535 24 -94 59 -161 113 -215 92 -92 209 -130 404
-130 l97 0 0 134 0 133 -79 6 c-157 12 -225 48 -251 132 -8 25 -15 159 -20
365 -11 423 -26 534 -92 669 -38 79 -132 175 -210 216 -32 17 -58 32 -58 35 0
3 28 21 62 40 94 54 173 135 212 222 64 139 72 206 85 698 7 277 8 286 33 341
35 77 83 100 219 107 l99 5 0 138 0 139 -102 -1 c-57 -1 -129 -5 -161 -9z"/>
<path d="M3070 3295 l0 -135 48 0 c71 -1 186 -24 215 -43 69 -45 87 -120 87
-377 2 -561 38 -730 189 -873 38 -35 92 -78 120 -93 28 -16 51 -31 51 -34 0
-3 -29 -21 -63 -40 -132 -74 -216 -193 -258 -363 -19 -80 -29 -236 -42 -717
-3 -109 -6 -132 -29 -181 -34 -74 -81 -98 -220 -112 l-98 -10 0 -135 0 -135
133 6 c209 8 327 59 408 177 82 120 98 213 109 660 12 434 22 493 107 597 39
49 134 99 206 109 l47 6 0 138 0 138 -42 7 c-159 27 -257 125 -294 294 -10 44
-18 181 -24 407 -13 454 -25 537 -99 651 -89 139 -222 193 -473 193 l-78 0 0
-135z"/>
<path d="M1680 3115 l0 -105 105 0 105 0 0 105 0 105 -105 0 -105 0 0 -105z"/>
<path d="M2190 2915 l0 -75 75 0 75 0 0 75 0 75 -75 0 -75 0 0 -75z"/>
<path d="M2440 2805 l0 -105 105 0 105 0 0 105 0 105 -105 0 -105 0 0 -105z"/>
<path d="M1470 2615 l0 -215 215 0 215 0 0 215 0 215 -215 0 -215 0 0 -215z"/>
<path d="M2570 2555 l0 -75 75 0 76 0 -3 73 -3 72 -72 3 -73 3 0 -76z"/>
<path d="M1030 2535 l0 -75 75 0 75 0 0 75 0 75 -75 0 -75 0 0 -75z"/>
<path d="M2960 2455 l0 -75 70 0 70 0 0 75 0 75 -70 0 -70 0 0 -75z"/>
<path d="M2110 2350 l0 -150 150 0 150 0 0 150 0 150 -150 0 -150 0 0 -150z"/>
<path d="M1100 2020 l0 -180 185 0 185 0 0 180 0 180 -185 0 -185 0 0 -180z"/>
<path d="M1767 2183 c-4 -3 -7 -37 -7 -75 l0 -68 75 0 75 0 0 75 0 75 -68 0
c-38 0 -72 -3 -75 -7z"/>
<path d="M2560 2035 l0 -145 150 0 150 0 0 145 0 145 -150 0 -150 0 0 -145z"/>
<path d="M2110 1860 l0 -190 190 0 190 0 0 190 0 190 -190 0 -190 0 0 -190z"/>
<path d="M1530 1615 l0 -145 145 0 145 0 0 145 0 145 -145 0 -145 0 0 -145z"/>
<path d="M2590 1570 l0 -130 135 0 135 0 0 130 0 130 -135 0 -135 0 0 -130z"/>
<path d="M2030 1515 l0 -75 75 0 75 0 0 75 0 75 -75 0 -75 0 0 -75z"/>
<path d="M2260 1315 l0 -135 130 0 130 0 0 135 0 135 -130 0 -130 0 0 -135z"/>
<path d="M1150 1365 l0 -75 70 0 70 0 0 75 0 75 -70 0 -70 0 0 -75z"/>
<path d="M1520 1295 l0 -75 75 0 75 0 0 75 0 75 -75 0 -75 0 0 -75z"/>
<path d="M1850 1205 l0 -145 150 0 150 0 0 145 0 145 -150 0 -150 0 0 -145z"/>
<path d="M1300 850 l0 -220 220 0 220 0 0 220 0 220 -220 0 -220 0 0 -220z"/>
<path d="M2330 810 l0 -151 148 3 147 3 3 148 3 147 -151 0 -150 0 0 -150z"/>
<path d="M1900 710 l0 -130 135 0 135 0 0 130 0 130 -135 0 -135 0 0 -130z"/>
<path d="M1400 200 l0 -150 150 0 150 0 0 150 0 150 -150 0 -150 0 0 -150z"/>
<path d="M1810 215 l0 -85 90 0 90 0 0 85 0 85 -90 0 -90 0 0 -85z"/>
</g>
</svg>
